# xmcd
#
# Track frame offsets:
#	150
#	15585
#	31382
#	47736
#	64706
#	81281
#	99387
#	117902
#	129220
#	142243
#
# Disc length: 2030 seconds
#
# Revision: 0
# Processed by: cddbd v1.4PL0 Copyright (c) Steve Scherf et al.
# Submitted via: dBpowerAMP V4.0
#
DISCID=8107ec0a
DTITLE=Kentucky - The rising of the moon
DYEAR=2001
DGENRE=Country
TTITLE0=You got it
TTITLE1=J'ai du boogie
TTITLE2=The rising of the moon
TTITLE3=Man I feel like a woman
TTITLE4=José Quervo
TTITLE5=Red hot salsa
TTITLE6=Amazing grace
TTITLE7=Picnick polka
TTITLE8=Jambalaya
TTITLE9=Sold
EXTD=
EXTT0=
EXTT1=
EXTT2=
EXTT3=
EXTT4=
EXTT5=
EXTT6=
EXTT7=
EXTT8=
EXTT9=
PLAYORDER=
